<?xml version="1.0" encoding="utf-8"?>
<!-- Generator: Adobe Illustrator 22.0.0, SVG Export Plug-In . SVG Version: 6.00 Build 0)  -->
<svg version="1.1" id="Layer_1" xmlns="http://www.w3.org/2000/svg" xmlns:xlink="http://www.w3.org/1999/xlink" x="0px" y="0px"
	 viewBox="0 0 841.9 595.3" style="enable-background:new 0 0 841.9 595.3;" xml:space="preserve">
<g>
	<path d="M478.6,199.5c100.9,65.6,132.2,200.1,63.5,330.8c2.4-37.6,4.7-74.2,7-111.1c-3.4,0.2-4.7-0.1-5,0.4
		c-27.1,36.9-63.4,62.9-103.2,84.1c-43.1,23-83.3,49.6-116.3,86.2c-1-0.7-2.1-1.4-3.1-2.1c3.6-7.1,6.7-14.5,10.8-21.3
		c27.7-45.8,65.9-82.2,105.2-117.7c20-18.1,41.9-35.4,57.6-56.9c40.3-55.4,32-112.6-0.9-168.6C489.8,215.6,484.6,208.5,478.6,199.5z
		"/>
	<path d="M252.7,328.7c-31,1.3-60.8,4.1-90.6,3.4c-28.4-0.7-56.7-5.1-85.1-7.6c-11.4-1-18.5-6.4-21.1-17.5c-0.1-0.5-0.3-0.9-0.5-1.3
		c-8-21.4-16-42.5-36.9-55.6c-5.3-3.3-8.8-9.6-16.3-18.1c19.3,1.7,34.5,2.4,49.4,5.1c2.4,0.4,5.6,11.9,3.7,16.1
		c-5.6,12.1,0.3,17.5,8.8,24.4c20.9,17,44.1,25.3,71.2,24.1c47.1-2,94.2-3,141.3-4.9c10.8-0.4,21.5-2.9,32.1-4.5
		C326.9,340.1,306,417,254.3,437c22.1-45.4,24.8-54.5,23.2-74.2c-13.6,6.5-27.8,13.3-41.9,20c-0.9-1.1-1.7-2.2-2.6-3.3
		C245.9,365.3,254.9,349.6,252.7,328.7z"/>
	<path d="M390.9,139.1c13.1-17.3,25.5-33.6,39.9-52.6c-25.1,0-47.8,0-70.5,0c-0.5-1.7-1.1-3.5-1.6-5.2c12.5-7,24.3-16.2,37.6-20.4
		C430.6,50,462,35.7,485,2c7.9,38,2.6,69.4-18.3,97.7c64.1,39,95.9,98.1,109.1,169.2c-14.4-21.6-28.1-43.7-43.3-64.7
		c-22.3-30.6-48.1-58-81.3-77.1c-5.3-3-12.9-2.1-22.7-3.4c16.5,42.8,14.3,80.1-5.6,119.3C418.1,160.4,416,153.6,390.9,139.1z"/>
	<path d="M355.2,66.6c-26.8,16.3-53.1,33.4-80.7,48.3c-7.2,3.9-18.4,1.9-27.5,0.5c-14.7-2.2-24.4,2.3-34.3,13.9
		c-10.2,11.9-23.3,22.3-36.9,30.2c-30.9,17.8-63.9,32.1-94.1,50.8c-23.8,14.8-47.9,10.8-74,6.3c10.4-5.5,20.4-11.8,31.2-16.5
		c39.7-17.2,79.7-33.6,119.4-50.8c5.8-2.5,12.6-6.3,15.4-11.4c22.2-40.7,56.3-61.1,102.2-64.6c26.3-2,52.5-6.9,78.7-10.4
		C354.8,64.1,355,65.4,355.2,66.6z"/>
	<path d="M103.6,223.9c34.1-16.5,68.2-33.1,102.5-49.3c2.8-1.3,7.5-0.6,10.5,0.7c34.5,15.1,67.2,15.1,97.6-11.4
		c-3.8,20.2-13.3,31.4-37.3,43.8c4.5,5.4,9.3,10.3,13.1,15.9c3.6,5.3,6,11.3,7.8,14.8c-21.8-11.4-44-24.5-67.5-34.3
		c-9.9-4.1-23.2-3.6-34-1.2c-30.9,6.7-61.3,15.5-91.9,23.5C104.1,225.5,103.9,224.7,103.6,223.9z"/>
	<path d="M291.8,135.9c-6.9,21.9-22.4,30.8-43.9,26.4c-10.5-2.1-21.4-2.4-32.2-3.5C227.7,137.2,249.6,130.6,291.8,135.9z"/>
</g>
</svg>
